<?xml version="1.0" encoding="utf-8"?>
<!-- Generator: Adobe Illustrator 18.1.1, SVG Export Plug-In . SVG Version: 6.00 Build 0)  -->
<svg version="1.1" id="Layer_1" xmlns="http://www.w3.org/2000/svg" xmlns:xlink="http://www.w3.org/1999/xlink" x="0px" y="0px"
	 viewBox="0 0 370 87.75" xml:space="preserve">
<g>
	<path fill="#348DCC" d="M31.358,32.539C39.43,24.667,47.6,26.9,47.6,26.9
		c12.7,2.7,12.024,14.39,12.024,14.39c3.464-12.226-10.329-17.719-10.329-17.719C65.14,28.553,63.3,41.5,63.3,41.5
		c-0.5,7.8-7.424,11.086-7.424,11.086c12.639-2.9,10.26-17.356,10.26-17.356C68.727,49.48,61.5,53.8,57.5,55.9
		c-6.8,3.5-13.248-0.804-13.248-0.804c9.564,9.382,20.29,0.064,20.29,0.064C55.673,63.631,47.3,60.6,47.3,60.6
		C35.5,57,36.414,46.69,36.414,46.69c-3.568,12.14,10.091,17.339,10.091,17.339C36.241,61.538,33.5,52.6,33.5,52.6
		c-3.5-13.7,6.453-17.377,6.453-17.377C27.485,37.914,29.764,52.37,29.764,52.37C27.372,42.405,32.6,36.4,32.6,36.4
		c8.9-10.1,18.959-3.877,18.959-3.877C42.194,23.216,31.3,32.5,31.3,32.5 M57.7,77.6c10.2-0.9,29.3-3.8,36.2-36
		c0,0-9.1,37.7-39,29.7c0,0,19.5-3,27.3-19c0,0,15.2-25.7-13.8-50c0,0,28,27.3,6.9,49.2c0,0,10.9-27-13.6-43.5
		c0,0-15.2-11.9-39-2.3c0,0,36.3-11.6,45.5,18.5c0,0-18.6-22.7-46-9.2c0,0-16.3,8.1-20,31.3c0,0,9.2-37.6,38.5-29.4
		c0,0-26.3,1.2-30.7,32.9c0,0-2.1,21.3,17.5,35.4c0,0-28-26.7-6.9-48.3c0,0-10.1,23.8,11.7,41.8c0,0,15,13.9,41,3.6
		c0,0-36,11.7-45.5-18.8C27.7,63.6,40.3,79.2,57.7,77.6"/>
</g>
<g>
	<path fill="#FFFFFF" d="M108.7,25.5h4.7v6.4c1.6-2.3,3.3-4.1,5.1-5.1c2.4-1.4,4.9-2.2,7.6-2.2
		c1.8,0,3.5,0.3,5.1,1c1.6,0.7,2.9,1.6,3.9,2.8s1.9,2.8,2.6,5c1.6-2.9,3.5-5.1,5.9-6.6s4.9-2.2,7.6-2.2c2.5,0,4.8,0.6,6.7,1.9
		c1.9,1.3,3.4,3.1,4.3,5.4c0.9,2.3,1.4,5.7,1.4,10.3v20.1h-4.8V42.2c0-3.9-0.3-6.7-0.8-8.1c-0.6-1.5-1.5-2.7-2.9-3.6
		c-1.4-0.9-3-1.4-4.9-1.4c-2.3,0-4.4,0.7-6.3,2c-1.9,1.4-3.3,3.2-4.2,5.4c-0.9,2.3-1.3,6-1.3,11.3v14.4h-4.7V43.4
		c0-4.4-0.3-7.5-0.8-9c-0.6-1.6-1.5-2.9-2.9-3.8c-1.4-1-3-1.4-4.9-1.4c-2.2,0-4.2,0.7-6.1,2s-3.3,3.1-4.2,5.3
		c-0.9,2.2-1.4,5.6-1.4,10.2v15.6h-4.7V25.5z"/>
	<path fill="#FFFFFF" d="M204.7,40.2c-0.6-2.5-1.6-4.5-2.8-6.1c-1.2-1.5-2.8-2.7-4.8-3.7
		c-2-0.9-4.1-1.4-6.3-1.4c-3.6,0-6.7,1.2-9.3,3.5c-1.9,1.7-3.3,4.2-4.3,7.6h27.5V40.2z M204.7,50.1l4,2.1
		c-1.3,2.6-2.8,4.6-4.5,6.2c-1.7,1.6-3.6,2.8-5.8,3.6c-2.1,0.8-4.6,1.2-7.3,1.2c-6,0-10.7-2-14.1-5.9c-3.4-3.9-5.1-8.4-5.1-13.3
		c0-4.7,1.4-8.8,4.3-12.5c3.6-4.6,8.5-7,14.6-7c6.3,0,11.3,2.4,15,7.1c2.7,3.4,4,7.6,4.1,12.6h-33.1c0.1,4.3,1.5,7.8,4.1,10.5
		c2.6,2.7,5.9,4.1,9.8,4.1c1.9,0,3.7-0.3,5.5-1c1.8-0.7,3.3-1.5,4.5-2.6C201.9,54.2,203.3,52.5,204.7,50.1"/>
	<path fill="#FFFFFF" d="M218.7,25.5h4.7v6.4c1.6-2.3,3.3-4.1,5.1-5.1c2.4-1.4,4.9-2.2,7.6-2.2
		c1.8,0,3.5,0.3,5.1,1c1.6,0.7,2.9,1.6,3.9,2.8s1.9,2.8,2.6,5c1.6-2.9,3.5-5.1,5.9-6.6s4.9-2.2,7.6-2.2c2.5,0,4.8,0.6,6.7,1.9
		c1.9,1.3,3.4,3.1,4.3,5.4s1.4,5.7,1.4,10.3v20.1h-4.8V42.2c0-3.9-0.3-6.7-0.8-8.1c-0.6-1.5-1.5-2.7-2.9-3.6
		c-1.4-0.9-3-1.4-4.9-1.4c-2.3,0-4.4,0.7-6.3,2c-1.9,1.4-3.3,3.2-4.2,5.4c-0.9,2.3-1.3,6-1.3,11.3v14.4h-4.7V43.4
		c0-4.4-0.3-7.5-0.8-9c-0.6-1.6-1.5-2.9-2.9-3.8c-1.4-1-3-1.4-4.9-1.4c-2.2,0-4.2,0.7-6.1,2c-1.9,1.3-3.3,3.1-4.2,5.3
		c-0.9,2.2-1.4,5.6-1.4,10.2v15.6h-4.7V25.5z"/>
	<path fill="#FFFFFF" d="M305.6,30.6l-5.7,5.7c-2.3-2.3-4.4-3.4-6.3-3.4c-1,0-1.8,0.2-2.4,0.7
		c-0.6,0.4-0.9,1-0.9,1.6c0,0.5,0.2,1,0.6,1.4c0.4,0.4,1.3,1,2.8,1.7l3.4,1.7c3.6,1.8,6,3.6,7.3,5.4c1.3,1.8,2,4,2,6.4
		c0,3.3-1.2,6-3.6,8.2c-2.4,2.2-5.6,3.3-9.7,3.3c-5.4,0-9.6-2.1-12.9-6.3l5.7-6.2c1.1,1.3,2.3,2.3,3.8,3.1
		c1.5,0.8,2.7,1.2,3.9,1.2c1.2,0,2.2-0.3,2.9-0.9c0.7-0.6,1.1-1.3,1.1-2c0-1.4-1.3-2.8-4-4.2l-3.1-1.6c-6-3-8.9-6.7-8.9-11.3
		c0-2.9,1.1-5.4,3.4-7.5c2.2-2.1,5.1-3.1,8.6-3.1c2.4,0,4.6,0.5,6.7,1.6C302.4,27.2,304.2,28.7,305.6,30.6"/>
	<path fill="#FFFFFF" d="M331,33.1c-2.9,0-5.2,1-7.1,3s-2.8,4.6-2.8,7.8s1,5.8,2.9,7.8
		c1.9,2.1,4.3,3.1,7.1,3.1c2.9,0,5.3-1,7.2-3c1.9-2,2.9-4.7,2.9-7.9s-1-5.8-2.9-7.8C336.4,34.1,334,33.1,331,33.1 M340.7,25.5h9.2
		v50.3h-9.2V58.4c-1.8,1.7-3.6,2.9-5.4,3.7c-1.8,0.8-3.8,1.1-5.9,1.1c-4.7,0-8.9-1.8-12.3-5.5c-3.5-3.7-5.2-8.3-5.2-13.7
		c0-5.7,1.7-10.3,5-14c3.4-3.6,7.4-5.4,12.2-5.4c2.2,0,4.3,0.4,6.2,1.3c1.9,0.8,3.7,2.1,5.4,3.8V25.5z"/>
	<rect x="358.3" y="11.3" fill="#FFFFFF" width="9.2" height="51"/>
</g>
</svg>
